<svg width="800" height="800" viewBox="0 0 24 24" xmlns="http://www.w3.org/2000/svg" fill="none">
  <path d="M12 0a12 12 0 1 0 0 24 12 12 0 0 0 0-24m3.163 21.783h-.093a.5.5 0 0 1-.382-.14.5.5 0 0 1-.14-.372v-1.406q.01-.701.01-1.416a3.7 3.7 0 0 0-.151-1.028 1.83 1.83 0 0 0-.542-.875 8 8 0 0 0 2.038-.471 4.05 4.05 0 0 0 1.466-.964c.407-.427.71-.943.885-1.506a6.8 6.8 0 0 0 .3-2.13 4.1 4.1 0 0 0-.26-1.476 3.9 3.9 0 0 0-.795-1.284 2.8 2.8 0 0 0 .162-.582q.05-.3.05-.604 0-.392-.09-.773a5 5 0 0 0-.221-.763.3.3 0 0 0-.111-.02h-.11q-.346.004-.674.111a5 5 0 0 0-.703.26 7 7 0 0 0-.661.343q-.322.191-.573.362a9.6 9.6 0 0 0-5.143 0 14 14 0 0 0-.572-.362 6 6 0 0 0-.672-.342 4.5 4.5 0 0 0-.705-.261 2.2 2.2 0 0 0-.662-.111h-.11a.3.3 0 0 0-.11.02 6 6 0 0 0-.23.763q-.08.382-.081.773 0 .304.051.604t.16.582A3.9 3.9 0 0 0 5.702 10a4.1 4.1 0 0 0-.263 1.476 6.9 6.9 0 0 0 .292 2.12c.181.563.483 1.08.884 1.516.415.422.915.75 1.466.964.653.25 1.337.41 2.033.476a1.8 1.8 0 0 0-.452.633 3 3 0 0 0-.2.744 2.75 2.75 0 0 1-1.175.27 1.8 1.8 0 0 1-1.065-.3 2.9 2.9 0 0 1-.752-.824 3 3 0 0 0-.292-.382 2.7 2.7 0 0 0-.372-.343 1.8 1.8 0 0 0-.432-.24 1.2 1.2 0 0 0-.481-.101q-.06.002-.12.01a.7.7 0 0 0-.162.02.4.4 0 0 0-.13.06.12.12 0 0 0-.06.1.33.33 0 0 0 .14.242q.14.111.232.171l.03.021q.2.155.382.333.169.148.3.33.136.178.231.381.11.2.231.463c.188.474.522.875.954 1.145.453.243.961.364 1.476.351q.262 0 .522-.03.258-.041.515-.091v1.743a.5.5 0 0 1-.533.521h-.062a10.286 10.286 0 1 1 6.324 0z" fill="#fff"/>
</svg>
