<svg width="800" height="800" viewBox="0 0 256 256" xmlns="http://www.w3.org/2000/svg" fill="none">
  <path d="M96 120.001v56a12 12 0 1 1-24 0v-56a12 12 0 0 1 24 0m28 68a12 12 0 0 0 12-12v-28a16 16 0 0 1 32 0v28a12 12 0 1 0 24 0v-28a39.975 39.975 0 0 0-58.573-35.41 11.992 11.992 0 0 0-21.427 7.41v56a12 12 0 0 0 12 12M232 44v168a20.023 20.023 0 0 1-20 20H44a20.023 20.023 0 0 1-20-20V44a20.02 20.02 0 0 1 20-20h168a20.02 20.02 0 0 1 20 20m-24 4H48v160h160ZM84 96a16 16 0 1 0-16-16 16 16 0 0 0 16 16" fill="#fff"/>
</svg>
